<?xml version="1.0" encoding="utf-8"?>
<!-- Generator: Adobe Illustrator 16.2.0, SVG Export Plug-In . SVG Version: 6.00 Build 0)  -->
<!DOCTYPE svg PUBLIC "-//W3C//DTD SVG 1.1//EN" "http://www.w3.org/Graphics/SVG/1.1/DTD/svg11.dtd">
<svg version="1.1" id="Layer_1" xmlns="http://www.w3.org/2000/svg" xmlns:xlink="http://www.w3.org/1999/xlink" x="0px" y="0px"
	 width="2000px" height="1500px" viewBox="0 0 2000 1500" enable-background="new 0 0 2000 1500" xml:space="preserve">
<rect display="none" fill="#141A20" width="2000" height="1500"/>
<g>
	<path fill="#5EBADB" d="M1122.127,728.391c-0.01-0.106-0.01-0.208-0.019-0.315c-0.043-0.432-0.115-0.864-0.203-1.294
		c-0.007-0.04-0.009-0.082-0.02-0.123c-0.09-0.439-0.205-0.874-0.335-1.309c-0.009-0.031-0.017-0.063-0.025-0.092
		c-0.133-0.44-0.296-0.875-0.479-1.308c-0.006-0.021-0.008-0.047-0.021-0.071c-0.183-0.437-0.392-0.868-0.618-1.294
		c-0.009-0.017-0.013-0.035-0.021-0.052c-0.225-0.419-0.467-0.831-0.733-1.24c-0.016-0.024-0.024-0.05-0.036-0.072
		c-0.282-0.428-0.579-0.846-0.9-1.262c-0.004-0.003-0.01-0.004-0.01-0.009c-0.324-0.415-0.669-0.823-1.032-1.222l-0.462-0.462
		l-2.582-2.58l-42.857-42.858c-8.621-8.622-22.599-8.622-31.221,0c-1.373,1.37-2.501,2.888-3.438,4.488
		c-1.939,3.319-2.949,7.023-3.013,10.753c-0.002,0.123-0.017,0.247-0.017,0.37s0.015,0.245,0.017,0.366
		c0.071,4.116,1.268,8.216,3.62,11.78c0.813,1.226,1.751,2.388,2.83,3.464l20.112,20.117c-1.068,5.006,0.326,10.438,4.207,14.322
		c2.947,2.947,6.868,4.571,11.038,4.571s8.09-1.624,11.034-4.571c2.951-2.95,4.576-6.871,4.576-11.041
		c0-4.17-1.625-8.091-4.574-11.038c-2.946-2.949-6.866-4.573-11.036-4.573c-1.822,0-3.59,0.327-5.256,0.922l-17.749-17.747
		c-2.585-2.587-2.585-6.773,0-9.359c2.585-2.582,6.777-2.582,9.359,0l41.044,41.045c0.055,0.058,0.091,0.118,0.14,0.172
		c0.166,0.194,0.336,0.388,0.47,0.587c0.058,0.082,0.094,0.167,0.143,0.254c0.111,0.177,0.221,0.355,0.3,0.538
		c0.049,0.107,0.073,0.217,0.112,0.328c0.055,0.161,0.121,0.322,0.157,0.486c0.023,0.119,0.023,0.24,0.043,0.359
		c0.021,0.156,0.048,0.312,0.048,0.468c0,0.008,0.007,0.016,0.007,0.022c0,0.151-0.03,0.3-0.049,0.451
		c-0.016,0.115-0.013,0.232-0.039,0.348c-0.038,0.163-0.095,0.321-0.152,0.483c-0.036,0.111-0.062,0.222-0.106,0.331
		c-0.079,0.176-0.19,0.347-0.29,0.518c-0.053,0.096-0.091,0.188-0.153,0.279c-0.177,0.262-0.391,0.52-0.629,0.771l-0.222,0.218
		l-62.628,62.632c-1.396,1.397-2.54,2.944-3.485,4.573c-1.97,3.406-2.979,7.22-2.979,11.039c0,5.65,2.154,11.301,6.465,15.611
		c8.622,8.622,22.603,8.622,31.222,0l42.862-42.859l-0.463-0.459l-0.059-0.058l-0.055-0.059c-3.525-3.845-5.46-8.546-5.46-13.246
		c0-0.914,0.088-1.817,0.229-2.714l-47.263,47.266c-2.582,2.586-6.774,2.586-9.359,0c-0.16-0.162-0.312-0.328-0.452-0.501
		c-0.987-1.212-1.481-2.695-1.481-4.175c0-1.484,0.494-2.965,1.481-4.179c0.141-0.176,0.292-0.341,0.452-0.503l45.033-45.035
		l10.698-10.695l5.943-5.94l2.579-2.582l0.837-0.835c0.42-0.424,0.821-0.857,1.185-1.296c1.47-1.748,2.494-3.596,3.104-5.479
		c0.002-0.007,0.012-0.017,0.012-0.024c0.142-0.441,0.254-0.886,0.352-1.329c0.009-0.032,0.021-0.063,0.027-0.096
		c0.085-0.39,0.137-0.782,0.186-1.171c0.009-0.088,0.029-0.174,0.039-0.26c0.036-0.362,0.049-0.72,0.054-1.084
		c0.007-0.116,0.021-0.235,0.021-0.349C1122.184,729.134,1122.157,728.761,1122.127,728.391z M1079.208,724.149
		c0.883,0.882,1.369,2.055,1.369,3.3c0,1.246-0.486,2.419-1.371,3.304c-0.88,0.88-2.05,1.364-3.296,1.364
		c-1.248,0-2.42-0.485-3.3-1.364c-1.82-1.822-1.82-4.785-0.002-6.604c0.882-0.881,2.054-1.366,3.302-1.366
		C1077.156,722.783,1078.326,723.267,1079.208,724.149z"/>
	<path fill="#D35B30" d="M1173.668,775.834c1.07-5.009-0.324-10.442-4.204-14.324c-2.95-2.948-6.871-4.571-11.039-4.571
		c-4.17,0-8.09,1.624-11.036,4.572c-6.083,6.083-6.084,15.986,0.001,22.08c2.947,2.945,6.866,4.568,11.035,4.568
		c1.821,0,3.59-0.327,5.257-0.923l17.749,17.749c1.29,1.292,1.938,2.985,1.938,4.679s-0.648,3.385-1.938,4.68
		c-2.585,2.582-6.777,2.582-9.359,0l-41.047-41.047c-0.052-0.053-0.088-0.114-0.137-0.168c-0.17-0.195-0.336-0.39-0.473-0.588
		c-0.067-0.092-0.104-0.189-0.157-0.281c-0.101-0.169-0.21-0.337-0.286-0.51c-0.054-0.121-0.08-0.244-0.123-0.369
		c-0.049-0.146-0.112-0.295-0.143-0.443c-0.03-0.135-0.03-0.269-0.052-0.404c-0.018-0.139-0.043-0.283-0.043-0.427
		c0-0.009-0.003-0.014-0.003-0.022c0-0.163,0.028-0.327,0.049-0.486c0.019-0.104,0.013-0.208,0.039-0.312
		c0.01-0.06,0.036-0.12,0.052-0.183c0.027-0.111,0.07-0.222,0.109-0.336c0.034-0.097,0.055-0.197,0.098-0.293
		c0.078-0.188,0.188-0.363,0.297-0.544c0.055-0.087,0.09-0.169,0.146-0.255c0.176-0.264,0.383-0.522,0.626-0.773l0.441-0.441
		l2.579-2.576l59.833-59.833c8.618-8.623,8.618-22.6,0-31.222c-8.625-8.622-22.604-8.622-31.223,0l-42.862,42.858l0.463,0.464
		l0.056,0.054l0.051,0.056c3.528,3.845,5.467,8.548,5.467,13.245c0,0.917-0.097,1.821-0.235,2.716l47.269-47.267
		c2.582-2.582,6.774-2.582,9.359,0c1.288,1.293,1.937,2.985,1.937,4.679c0,1.696-0.648,3.387-1.937,4.68l-45.036,45.034
		l-10.695,10.696l-3.143,3.142l-2.58,2.578l-3.639,3.638c-0.421,0.427-0.822,0.859-1.191,1.298
		c-0.167,0.199-0.307,0.403-0.464,0.604c-0.185,0.243-0.385,0.481-0.554,0.727c-0.144,0.2-0.252,0.404-0.383,0.605
		c-0.161,0.254-0.337,0.507-0.476,0.764c-0.134,0.231-0.233,0.469-0.354,0.701c-0.112,0.23-0.242,0.458-0.343,0.688
		c-0.114,0.259-0.194,0.515-0.29,0.771c-0.084,0.213-0.176,0.427-0.243,0.642c-0.095,0.288-0.16,0.575-0.229,0.867
		c-0.051,0.185-0.113,0.372-0.149,0.559c-0.069,0.313-0.106,0.626-0.148,0.938c-0.024,0.164-0.063,0.329-0.079,0.494
		c-0.033,0.334-0.042,0.671-0.051,1.004c-0.004,0.142-0.024,0.286-0.024,0.428c0,0.392,0.029,0.783,0.058,1.172
		c0.012,0.088,0.009,0.172,0.018,0.259c0.046,0.422,0.115,0.842,0.197,1.26c0.006,0.054,0.012,0.107,0.021,0.158
		c0.583,2.82,2.021,5.538,4.214,7.929l0.463,0.465l2.58,2.576l42.861,42.859c8.62,8.622,22.601,8.622,31.219,0
		c0.962-0.958,1.792-1.989,2.537-3.063c1.121-1.62,1.998-3.35,2.635-5.152c0.852-2.388,1.297-4.887,1.297-7.393
		c0-5.653-2.152-11.303-6.469-15.614L1173.668,775.834z M1155.13,775.854c-1.82-1.823-1.822-4.786-0.002-6.606
		c0.881-0.881,2.051-1.366,3.297-1.366c1.247,0,2.42,0.486,3.302,1.366c1.818,1.819,1.817,4.783,0.004,6.6
		c-0.884,0.882-2.058,1.367-3.306,1.367C1157.178,777.215,1156.007,776.73,1155.13,775.854z"/>
	<path fill="#5EBADB" d="M591.787,739.87c-3.381-2.097-8.638-3.159-15.624-3.159c-9.754,0-16.056,2.118-18.728,6.294l-1.507,2.354
		l-1.397-2.42c-2.386-4.133-8.824-6.228-19.133-6.228c-7.018,0-12.297,1.063-15.694,3.161c-3.178,1.962-4.722,4.839-4.722,8.796
		v26.564c0,0.8,0,1.796,2.386,1.796c2.563,0,2.563-1.038,2.563-1.796v-27.48c0-5.272,5.204-7.945,15.467-7.945
		c11.854,0,17.864,3.037,17.864,9.027v26.398c0,0.758,0,1.796,2.651,1.796c2.386,0,2.386-0.996,2.386-1.796v-26.398
		c0-5.99,6.011-9.027,17.864-9.027c10.145,0,15.289,2.673,15.289,7.945v27.48c0,0.8,0,1.796,2.475,1.796
		c2.563,0,2.563-1.038,2.563-1.796v-26.564C596.49,744.71,594.952,741.832,591.787,739.87z"/>
	<path fill="#5EBADB" d="M724.309,736.711h-18.918c-7.391,0-12.957,1.038-16.542,3.086c-3.323,1.898-4.938,4.663-4.938,8.454v16.656
		c0,3.847,1.637,6.652,5.005,8.578c3.629,2.075,9.262,3.127,16.741,3.127h7.018c1.584,0,1.852-0.503,1.852-1.63
		c0-0.935-0.129-1.547-1.852-1.547h-9.236c-9.674,0-14.58-2.533-14.58-7.53v-5.412v-1.7h1.7h49.472c1.801,0,2.118-0.606,2.118-1.881
		v-10.327C742.147,744.143,742.147,736.711,724.309,736.711z M737.377,753.748v1.7h-1.7h-45.119h-1.7v-1.7v-5.996
		c0-5.272,4.906-7.945,14.58-7.945h22.559c9.406,0,11.381,4.094,11.381,7.528V753.748z"/>
	<path fill="#5EBADB" d="M484.309,736.711h-18.918c-7.391,0-12.957,1.038-16.542,3.086c-3.323,1.898-4.938,4.663-4.938,8.454v16.656
		c0,3.847,1.637,6.652,5.005,8.578c3.629,2.075,9.262,3.127,16.741,3.127h7.018c1.584,0,1.852-0.503,1.852-1.63
		c0-0.935-0.129-1.547-1.852-1.547h-9.236c-9.674,0-14.58-2.533-14.58-7.53v-5.412v-1.7h1.7h49.472c1.801,0,2.118-0.606,2.118-1.881
		v-10.327C502.147,744.143,502.147,736.711,484.309,736.711z M497.377,753.748v1.7h-1.7h-45.119h-1.7v-1.7v-5.996
		c0-5.272,4.906-7.945,14.58-7.945h22.559c9.406,0,11.381,4.094,11.381,7.528V753.748z"/>
	<path fill="#5EBADB" d="M810.459,722.971c-2.128,0-2.297,0.779-2.297,1.797v10.243v1.7h-1.7h-30.996
		c-7.331,0-12.85,1.037-16.405,3.083c-3.296,1.897-4.899,4.664-4.899,8.457v18.155c0,3.311,1.581,5.737,4.832,7.42
		c3.572,1.849,9.114,2.786,16.472,2.786h15.721c7.524,0,13.192-0.996,16.846-2.96c3.357-1.806,4.989-4.421,4.989-7.996v-40.889
		C813.021,724.009,813.021,722.971,810.459,722.971z M808.162,741.59v23.149c0,5.771-5.264,8.696-15.645,8.696h-19.361
		c-11.608,0-14.045-4.729-14.045-8.696v-15.488c0-4.271,2.529-9.361,14.578-9.361h32.772h1.7V741.59z"/>
	<path fill="#5EBADB" d="M883.556,722.971c-2.129,0-2.298,0.779-2.298,1.797v10.243v1.7h-1.7h-30.996
		c-7.331,0-12.85,1.037-16.404,3.083c-3.296,1.897-4.898,4.664-4.898,8.457v18.155c0,3.311,1.58,5.737,4.832,7.42
		c3.572,1.849,9.114,2.786,16.471,2.786h15.721c7.524,0,13.193-0.996,16.847-2.96c3.357-1.806,4.989-4.421,4.989-7.996v-40.889
		C886.118,724.009,886.118,722.971,883.556,722.971z M881.258,741.59v23.149c0,5.771-5.264,8.696-15.645,8.696h-19.361
		c-11.609,0-14.046-4.729-14.046-8.696v-15.488c0-4.271,2.529-9.361,14.579-9.361h32.772h1.7V741.59z"/>
	<path fill="#5EBADB" d="M940.753,736.711h-18.919c-7.391,0-12.957,1.038-16.542,3.086c-3.322,1.898-4.938,4.663-4.938,8.454v16.656
		c0,3.847,1.637,6.652,5.005,8.578c3.629,2.075,9.262,3.127,16.741,3.127h7.017c1.585,0,1.853-0.503,1.853-1.63
		c0-0.935-0.129-1.547-1.853-1.547h-9.236c-9.674,0-14.579-2.533-14.579-7.53v-5.412v-1.7h1.7h49.471
		c1.801,0,2.118-0.606,2.118-1.881v-10.327C958.591,744.143,958.591,736.711,940.753,736.711z M953.82,753.748v1.7h-1.7h-45.118
		h-1.7v-1.7v-5.996c0-5.272,4.905-7.945,14.579-7.945h22.559c9.406,0,11.381,4.094,11.381,7.528V753.748z"/>
	<path fill="#5EBADB" d="M1026.904,722.971c-2.129,0-2.298,0.779-2.298,1.797v10.243v1.7h-1.7H991.91
		c-7.33,0-12.85,1.037-16.404,3.083c-3.296,1.897-4.898,4.664-4.898,8.457v18.155c0,3.311,1.58,5.737,4.831,7.42
		c3.572,1.849,9.113,2.786,16.471,2.786h15.723c7.524,0,13.191-0.996,16.845-2.96c3.356-1.806,4.988-4.421,4.988-7.996v-40.889
		C1029.466,723.967,1029.466,722.971,1026.904,722.971z M1024.606,741.59v23.149c0,5.771-5.264,8.696-15.646,8.696h-19.36
		c-11.609,0-14.046-4.729-14.046-8.696v-15.488c0-4.271,2.529-9.361,14.579-9.361h32.772h1.7V741.59z"/>
	<path fill="#D35D31" d="M1394.445,775.232c0,2.33-1.422,3.496-4.264,3.496s-4.264-1.166-4.264-3.496v-28.397
		c0-3.553-3.818-5.328-11.457-5.328h-21.051c-7.697,0-11.543,1.775-11.543,5.328v28.397c0,2.33-1.395,3.496-4.176,3.496
		c-2.783,0-4.176-1.166-4.176-3.496v-28.397c0-7.883,7.402-11.824,22.207-11.824h16.252c14.979,0,22.471,3.941,22.471,11.824
		V775.232z"/>
	<path fill="#D35D31" d="M1416.117,741.507v33.726c0,2.33-1.363,3.496-4.088,3.496c-2.84,0-4.264-1.166-4.264-3.496v-33.726h-4.086
		c-2.367,0-3.551-1.111-3.551-3.332c0-2.109,1.184-3.164,3.551-3.164h4.086v-10.243c0-2.331,1.451-3.497,4.354-3.497
		c2.664,0,3.998,1.166,3.998,3.497v10.243h16.783c2.313,0,3.467,1.083,3.467,3.248s-1.154,3.248-3.467,3.248H1416.117z"/>
	<path fill="#D35D31" d="M1556.09,775.232c0,2.33-1.395,3.496-4.178,3.496c-2.84,0-4.262-1.166-4.262-3.496v-50.465
		c0-2.331,1.393-3.497,4.174-3.497c2.842,0,4.266,1.166,4.266,3.497V775.232z"/>
	<path fill="#D35D31" d="M1481.441,738.39l-14.801-7.354v3.976h-3.721c-14.211,0-21.316,4.387-21.316,13.157v27.064
		c0,2.33,1.393,3.496,4.174,3.496c2.846,0,4.266-1.166,4.266-3.496v-27.064c0-4.44,3.996-6.661,11.988-6.661h4.609v4.235
		L1481.441,738.39z"/>
	<path fill="#5EBADB" d="M617.423,744.456l0.096,0.151l5.487,9.933c0.309,0.761,0.907,1.419,1.361,1.499
		c0.396,0.08,0.86-0.341,1.147-0.642l3.164-4.764c0.933-1.034,2.194-1.49,3.461-1.251c0.891,0.168,2.526,0.846,3.578,3.491
		l0.15,0.313l4.724,13.712c0.441,1.045,0.99,1.37,1.116,1.391c0.211-0.009,0.84-0.52,1.331-1.989l4.6-15.886
		c0.4-1.474,1.639-6.03,4.785-6.257c2.103-0.151,3.708,1.791,4.45,3.499l3.058,6.44c0.387,0.757,0.787,1.062,0.958,1.073
		c0.154-0.006,0.534-0.214,0.987-0.858l2.766-4.821c1.489-2.104,3.014-2.397,4.023-2.28c0.527,0.063,1.029,0.256,1.511,0.56
		c-0.157-3.526-1.749-6.14-4.892-7.954c-3.569-2.06-9.111-3.104-16.47-3.104h-30.906h-1.7v-1.7v-10.243c0-0.801,0-1.797-2.476-1.797
		c-2.474,0-2.474,0.996-2.474,1.797v18.123c0.321-0.188,0.653-0.35,0.998-0.462C614.162,741.811,616.047,742.55,617.423,744.456z"/>
	<path fill="#5EBADB" d="M668.311,750.188c-0.202-0.021-0.631,0.22-1.181,0.979l-2.748,4.795c-1.327,1.931-2.727,2.271-3.689,2.2
		c-0.793-0.052-2.298-0.477-3.453-2.741l-3.097-6.525c-0.521-1.197-1.25-1.762-1.503-1.746c-0.266,0.019-1.225,0.809-2.113,4.076
		l-4.624,15.968c-0.853,2.558-2.335,4.029-4.083,4.094c-0.033,0.002-0.068,0.002-0.104,0.002c-0.839,0-2.686-0.367-3.925-3.321
		l-4.819-13.88c-0.449-1.187-1.011-1.686-1.386-1.756c-0.241-0.042-0.453,0.09-0.606,0.237l-3.169,4.768
		c-1.525,1.68-2.997,1.834-3.965,1.657c-1.762-0.312-2.996-1.858-3.58-3.234l-5.323-9.615c-0.861-1.152-1.49-0.948-1.762-0.86
		c-0.739,0.239-1.444,0.992-1.921,1.773v18.184c0,3.723,1.651,6.443,5.049,8.315c3.679,2.028,9.387,3.057,16.965,3.057h15.542
		c7.358,0,12.898-1.05,16.466-3.121c3.315-1.925,4.926-4.732,4.926-8.584v-12.386C669.12,750.318,668.348,750.192,668.311,750.188z"
		/>
	<g>
		<path fill="#D35D31" d="M1536.722,772.379c1.57-1.936,2.372-4.337,2.372-7.223v-16.821c0-2.911-0.795-5.336-2.354-7.293
			c-0.539-0.677-1.175-1.295-1.9-1.857l-23.133,16.557l24.319,17.406C1536.271,772.898,1536.506,772.645,1536.722,772.379z"/>
		<path fill="#D35D31" d="M1484.353,775.32c0.791,0.43,1.655,0.815,2.604,1.151c3.466,1.227,7.966,1.841,13.501,1.841h16.877
			c5.36,0,9.724-0.603,13.104-1.801c1.157-0.41,2.189-0.896,3.112-1.447l-24.419-17.479L1484.353,775.32z"/>
		<path fill="#D35D31" d="M1532.035,737.502c-0.592-0.275-1.218-0.53-1.885-0.76c-3.341-1.148-7.603-1.732-12.816-1.732h-16.607
			c-5.517,0-10.01,0.611-13.495,1.823c-0.438,0.152-0.853,0.317-1.258,0.488l23.157,16.574L1532.035,737.502z"/>
		<path fill="#D35D31" d="M1480.666,741.1c-1.598,1.965-2.412,4.398-2.412,7.317v16.739c0,2.874,0.811,5.267,2.399,7.199
			c0.329,0.401,0.697,0.779,1.094,1.141l24.806-17.755l-23.503-16.823C1482.123,739.567,1481.323,740.291,1480.666,741.1z"/>
	</g>
	<g>
		<path fill="#D35D31" d="M1322.055,772.379c1.57-1.936,2.372-4.337,2.372-7.223v-16.821c0-2.911-0.795-5.336-2.354-7.293
			c-0.539-0.677-1.175-1.295-1.9-1.857l-23.133,16.557l24.319,17.406C1321.604,772.898,1321.839,772.645,1322.055,772.379z"/>
		<path fill="#D35D31" d="M1269.686,775.32c0.791,0.43,1.655,0.815,2.604,1.151c3.466,1.227,7.966,1.841,13.501,1.841h16.877
			c5.36,0,9.724-0.603,13.104-1.801c1.157-0.41,2.189-0.896,3.112-1.447l-24.419-17.479L1269.686,775.32z"/>
		<path fill="#D35D31" d="M1317.368,737.502c-0.592-0.275-1.218-0.53-1.885-0.76c-3.341-1.148-7.603-1.732-12.816-1.732h-16.607
			c-5.517,0-10.01,0.611-13.495,1.823c-0.438,0.152-0.853,0.317-1.258,0.488l23.157,16.574L1317.368,737.502z"/>
		<path fill="#D35D31" d="M1265.999,741.1c-1.598,1.965-2.412,4.398-2.412,7.317v16.739c0,2.874,0.811,5.267,2.399,7.199
			c0.329,0.401,0.697,0.779,1.094,1.141l24.806-17.755l-23.503-16.823C1267.456,739.567,1266.656,740.291,1265.999,741.1z"/>
	</g>
	<path fill="#D35D31" d="M1249.23,771.735h-30.375c-8.586,0-12.879-2.193-12.879-6.579v-17.655c0-3.997,3.732-5.994,11.191-5.994
		h35.093v4.291l14.801-7.352l-14.801-7.355v3.92h-33.937c-13.799,0-20.693,4.247-20.693,12.741v17.82
		c0,8.493,7.578,12.74,22.736,12.74h28.863c2.313,0,3.465-1.025,3.465-3.08C1252.695,772.901,1251.543,771.735,1249.23,771.735z"/>
</g>
</svg>
